<svg xmlns="http://www.w3.org/2000/svg" xmlns:xlink="http://www.w3.org/1999/xlink" version="1.1" width="892.1" height="617.1" viewBox="89.9 74.9 892.1 617.1"><g><g transform="translate(90,120)"><g><g>
<path d="M180,0H0v210h180V0L180,0z" stroke="#000000" stroke-dasharray="none" fill="#FFFFFF"/>
<rect x="7.9" y="9.6" width="164.3" height="190.8" fill="none"/>
<circle fill="none" cx="90" cy="0" r="0.1"/>
<circle fill="none" cx="134.6" cy="0" r="0.1"/>
<circle fill="none" cx="180" cy="53" r="0.1"/>
<circle fill="none" cx="180" cy="105" r="0.1"/>
<circle fill="none" cx="180" cy="157" r="0.1"/>
<circle fill="none" cx="134.6" cy="210" r="0.1"/>
<circle fill="none" cx="90" cy="210" r="0.1"/>
<circle fill="none" cx="45.4" cy="210" r="0.1"/>
<circle fill="none" cx="0" cy="157" r="0.1"/>
<circle fill="none" cx="0" cy="105" r="0.1"/>
<circle fill="none" cx="0" cy="53" r="0.1"/>
<circle fill="none" cx="45.4" cy="0" r="0.1"/>
</g></g><rect stroke="none" stroke-width="1" fill="#FFFFFF" x="0" y="0" width="40" height="20" transform="translate(219.9,94.9)"/><path stroke="#000000" fill="none" d="M180,105 C197,121.9 202.9,88 219.9 104.9"/><text font-family="OpenSansCondensedLight" font-size="14pt" fill="black" transform="translate(219.9,94.9)" text-anchor="middle"><tspan x="20" y="16.3">202</tspan></text><rect stroke-width="0" fill="none" width="164.3" height="190.8" transform="translate(7.9,9.6)"/><text font-family="OpenSansCondensedLight" font-size="14pt" fill="black" transform="translate(7.9,9.6)" text-anchor="middle"><tspan x="82.1" y="16.8">RETRIEVAL</tspan><tspan x="82.1" y="37.8">ENGINE</tspan></text><path stroke="#000000" fill="none" transform="translate(7.9,9.6)" d="M 0 0"/></g><g transform="translate(120,195)"><g><g>
<path d="M120,0H0v30h120V0L120,0z" stroke="#000000" stroke-dasharray="none" fill="#FFFFFF"/>
<rect x="5.2" y="1.4" width="109.5" height="27.3" fill="none"/>
<circle fill="none" cx="60" cy="0" r="0.1"/>
<circle fill="none" cx="89.7" cy="0" r="0.1"/>
<circle fill="none" cx="120" cy="7.6" r="0.1"/>
<circle fill="none" cx="120" cy="15" r="0.1"/>
<circle fill="none" cx="120" cy="22.4" r="0.1"/>
<circle fill="none" cx="89.7" cy="30" r="0.1"/>
<circle fill="none" cx="60" cy="30" r="0.1"/>
<circle fill="none" cx="30.3" cy="30" r="0.1"/>
<circle fill="none" cx="0" cy="22.4" r="0.1"/>
<circle fill="none" cx="0" cy="15" r="0.1"/>
<circle fill="none" cx="0" cy="7.6" r="0.1"/>
<circle fill="none" cx="30.3" cy="0" r="0.1"/>
</g></g><rect stroke="none" stroke-width="1" fill="#FFFFFF" x="0" y="0" width="40" height="20" transform="translate(159.9,4.9)"/><path stroke="#000000" fill="none" d="M120,15 C137,31.9 142.9,-2 159.9 14.9"/><text font-family="OpenSansCondensedLight" font-size="14pt" fill="black" transform="translate(159.9,4.9)" text-anchor="middle"><tspan x="20" y="16.3">116</tspan></text><rect stroke-width="0" fill="none" width="109.5" height="27.3" transform="translate(5.2,1.4)"/><text font-family="OpenSansCondensedLight" font-size="14pt" fill="black" transform="translate(5.2,1.4)" text-anchor="middle"><tspan x="54.8" y="19.9">REQUEST</tspan></text><path stroke="#000000" fill="none" transform="translate(5.2,1.4)" d="M 0 0"/></g><g transform="translate(631.2,119)"><g><g>
<path d="M181,0H0v212h181V0L181,0z" stroke="#000000" stroke-dasharray="none" fill="#FFFFFF"/>
<rect x="7.9" y="9.7" width="165.2" height="192.7" fill="none"/>
<circle fill="none" cx="90.5" cy="0" r="0.1"/>
<circle fill="none" cx="135.4" cy="0" r="0.1"/>
<circle fill="none" cx="181" cy="53.5" r="0.1"/>
<circle fill="none" cx="181" cy="106" r="0.1"/>
<circle fill="none" cx="181" cy="158.5" r="0.1"/>
<circle fill="none" cx="135.4" cy="212" r="0.1"/>
<circle fill="none" cx="90.5" cy="212" r="0.1"/>
<circle fill="none" cx="45.7" cy="212" r="0.1"/>
<circle fill="none" cx="0" cy="158.5" r="0.1"/>
<circle fill="none" cx="0" cy="106" r="0.1"/>
<circle fill="none" cx="0" cy="53.5" r="0.1"/>
<circle fill="none" cx="45.7" cy="0" r="0.1"/>
</g></g><rect stroke="none" stroke-width="1" fill="#FFFFFF" x="0" y="0" width="40" height="20" transform="translate(220.9,95.9)"/><path stroke="#000000" fill="none" d="M181,106 C198,122.9 203.9,89 220.9 105.9"/><text font-family="OpenSansCondensedLight" font-size="14pt" fill="black" transform="translate(220.9,95.9)" text-anchor="middle"><tspan x="20" y="16.3">206</tspan></text><rect stroke-width="0" fill="none" width="165.2" height="192.7" transform="translate(7.9,9.7)"/><text font-family="OpenSansCondensedLight" font-size="14pt" fill="black" transform="translate(7.9,9.7)" text-anchor="middle"><tspan x="82.6" y="16.8">VALIDATION</tspan><tspan x="82.6" y="37.8">ENGINE</tspan></text><path stroke="#000000" fill="none" transform="translate(7.9,9.7)" d="M 0 0"/></g><g transform="translate(120,265)"><g><g>
<path d="M120,0H0v30h120V0L120,0z" stroke="#000000" stroke-dasharray="none" fill="#FFFFFF"/>
<rect x="5.2" y="1.4" width="109.5" height="27.3" fill="none"/>
<circle fill="none" cx="60" cy="0" r="0.1"/>
<circle fill="none" cx="89.7" cy="0" r="0.1"/>
<circle fill="none" cx="120" cy="7.6" r="0.1"/>
<circle fill="none" cx="120" cy="15" r="0.1"/>
<circle fill="none" cx="120" cy="22.4" r="0.1"/>
<circle fill="none" cx="89.7" cy="30" r="0.1"/>
<circle fill="none" cx="60" cy="30" r="0.1"/>
<circle fill="none" cx="30.3" cy="30" r="0.1"/>
<circle fill="none" cx="0" cy="22.4" r="0.1"/>
<circle fill="none" cx="0" cy="15" r="0.1"/>
<circle fill="none" cx="0" cy="7.6" r="0.1"/>
<circle fill="none" cx="30.3" cy="0" r="0.1"/>
</g></g><rect stroke="none" stroke-width="1" fill="#FFFFFF" x="0" y="0" width="40" height="20" transform="translate(159.9,4.9)"/><path stroke="#000000" fill="none" d="M120,15 C137,31.9 142.9,-2 159.9 14.9"/><text font-family="OpenSansCondensedLight" font-size="14pt" fill="black" transform="translate(159.9,4.9)" text-anchor="middle"><tspan x="20" y="16.3">124</tspan></text><rect stroke-width="0" fill="none" width="109.5" height="27.3" transform="translate(5.2,1.4)"/><text font-family="OpenSansCondensedLight" font-size="14pt" fill="black" transform="translate(5.2,1.4)" text-anchor="middle"><tspan x="54.8" y="9.4">TEST CASE</tspan><tspan x="54.8" y="30.4">FILE</tspan></text><path stroke="#000000" fill="none" transform="translate(5.2,1.4)" d="M 0 0"/></g><g transform="translate(195,405)"><g><g>
<path d="M181,0H0v212h181V0L181,0z" stroke="#000000" stroke-dasharray="none" fill="#FFFFFF"/>
<rect x="7.9" y="9.7" width="165.2" height="192.7" fill="none"/>
<circle fill="none" cx="90.5" cy="0" r="0.1"/>
<circle fill="none" cx="135.4" cy="0" r="0.1"/>
<circle fill="none" cx="181" cy="53.5" r="0.1"/>
<circle fill="none" cx="181" cy="106" r="0.1"/>
<circle fill="none" cx="181" cy="158.5" r="0.1"/>
<circle fill="none" cx="135.4" cy="212" r="0.1"/>
<circle fill="none" cx="90.5" cy="212" r="0.1"/>
<circle fill="none" cx="45.7" cy="212" r="0.1"/>
<circle fill="none" cx="0" cy="158.5" r="0.1"/>
<circle fill="none" cx="0" cy="106" r="0.1"/>
<circle fill="none" cx="0" cy="53.5" r="0.1"/>
<circle fill="none" cx="45.7" cy="0" r="0.1"/>
</g></g><rect stroke="none" stroke-width="1" fill="#FFFFFF" x="0" y="0" width="40" height="20" transform="translate(220.9,95.9)"/><path stroke="#000000" fill="none" d="M181,106 C198,122.9 203.9,89 220.9 105.9"/><text font-family="OpenSansCondensedLight" font-size="14pt" fill="black" transform="translate(220.9,95.9)" text-anchor="middle"><tspan x="20" y="16.3">208</tspan></text><rect stroke-width="0" fill="none" width="165.2" height="192.7" transform="translate(7.9,9.7)"/><text font-family="OpenSansCondensedLight" font-size="14pt" fill="black" transform="translate(7.9,9.7)" text-anchor="middle"><tspan x="82.6" y="16.8">TRANSFORMATION</tspan><tspan x="82.6" y="37.8">ENGINE</tspan></text><path stroke="#000000" fill="none" transform="translate(7.9,9.7)" d="M 0 0"/></g><g transform="translate(315,75)"><g><g>
<path d="M270,0H0v270h270V0L270,0z" stroke="#000000" stroke-dasharray="none" fill="#FFFFFF"/>
<rect x="11.8" y="12.3" width="246.4" height="245.4" fill="none"/>
<circle fill="none" cx="135" cy="0" r="0.1"/>
<circle fill="none" cx="201.9" cy="0" r="0.1"/>
<circle fill="none" cx="270" cy="68.1" r="0.1"/>
<circle fill="none" cx="270" cy="135" r="0.1"/>
<circle fill="none" cx="270" cy="201.9" r="0.1"/>
<circle fill="none" cx="201.9" cy="270" r="0.1"/>
<circle fill="none" cx="135" cy="270" r="0.1"/>
<circle fill="none" cx="68.1" cy="270" r="0.1"/>
<circle fill="none" cx="0" cy="201.9" r="0.1"/>
<circle fill="none" cx="0" cy="135" r="0.1"/>
<circle fill="none" cx="0" cy="68.1" r="0.1"/>
<circle fill="none" cx="68.1" cy="0" r="0.1"/>
</g></g><rect stroke="none" stroke-width="1" fill="#FFFFFF" x="0" y="0" width="40" height="20" transform="translate(309.9,124.9)"/><path stroke="#000000" fill="none" d="M270,135 C287,151.9 292.9,118 309.9 134.9"/><text font-family="OpenSansCondensedLight" font-size="14pt" fill="black" transform="translate(309.9,124.9)" text-anchor="middle"><tspan x="20" y="16.3">204</tspan></text><rect stroke-width="0" fill="none" width="246.4" height="245.4" transform="translate(11.8,12.3)"/><text font-family="OpenSansCondensedLight" font-size="14pt" fill="black" transform="translate(11.8,12.3)" text-anchor="middle"><tspan x="123.2" y="16.8">CONFIGURATION ENGINE</tspan></text><path stroke="#000000" fill="none" transform="translate(11.8,12.3)" d="M 0 0"/></g><g transform="translate(355,135)"><g><g>
<path d="M190,0H0v30h190V0L190,0z" stroke="#000000" stroke-dasharray="none" fill="#FFFFFF"/>
<rect x="8.3" y="1.4" width="173.4" height="27.3" fill="none"/>
<circle fill="none" cx="95" cy="0" r="0.1"/>
<circle fill="none" cx="142.1" cy="0" r="0.1"/>
<circle fill="none" cx="190" cy="7.6" r="0.1"/>
<circle fill="none" cx="190" cy="15" r="0.1"/>
<circle fill="none" cx="190" cy="22.4" r="0.1"/>
<circle fill="none" cx="142.1" cy="30" r="0.1"/>
<circle fill="none" cx="95" cy="30" r="0.1"/>
<circle fill="none" cx="47.9" cy="30" r="0.1"/>
<circle fill="none" cx="0" cy="22.4" r="0.1"/>
<circle fill="none" cx="0" cy="15" r="0.1"/>
<circle fill="none" cx="0" cy="7.6" r="0.1"/>
<circle fill="none" cx="47.9" cy="0" r="0.1"/>
</g></g><rect stroke="none" stroke-width="1" fill="#FFFFFF" x="0" y="0" width="40" height="20" transform="translate(229.9,4.9)"/><path stroke="#000000" fill="none" d="M190,15 C207,31.9 212.9,-2 229.9 14.9"/><text font-family="OpenSansCondensedLight" font-size="14pt" fill="black" transform="translate(229.9,4.9)" text-anchor="middle"><tspan x="20" y="16.3">118</tspan></text><rect stroke-width="0" fill="none" width="173.4" height="27.3" transform="translate(8.3,1.4)"/><text font-family="OpenSansCondensedLight" font-size="14pt" fill="black" transform="translate(8.3,1.4)" text-anchor="middle"><tspan x="86.7" y="19.9">FIELD NAMES</tspan></text><path stroke="#000000" fill="none" transform="translate(8.3,1.4)" d="M 0 0"/></g><g transform="translate(661.7,210)"><g><g>
<path d="M120,0H0v30h120V0L120,0z" stroke="#000000" stroke-dasharray="none" fill="#FFFFFF"/>
<rect x="5.2" y="1.4" width="109.5" height="27.3" fill="none"/>
<circle fill="none" cx="60" cy="0" r="0.1"/>
<circle fill="none" cx="89.7" cy="0" r="0.1"/>
<circle fill="none" cx="120" cy="7.6" r="0.1"/>
<circle fill="none" cx="120" cy="15" r="0.1"/>
<circle fill="none" cx="120" cy="22.4" r="0.1"/>
<circle fill="none" cx="89.7" cy="30" r="0.1"/>
<circle fill="none" cx="60" cy="30" r="0.1"/>
<circle fill="none" cx="30.3" cy="30" r="0.1"/>
<circle fill="none" cx="0" cy="22.4" r="0.1"/>
<circle fill="none" cx="0" cy="15" r="0.1"/>
<circle fill="none" cx="0" cy="7.6" r="0.1"/>
<circle fill="none" cx="30.3" cy="0" r="0.1"/>
</g></g><rect stroke="none" stroke-width="1" fill="#FFFFFF" x="0" y="0" width="40" height="20" transform="translate(159.9,4.9)"/><path stroke="#000000" fill="none" d="M120,15 C137,31.9 142.9,-2 159.9 14.9"/><text font-family="OpenSansCondensedLight" font-size="14pt" fill="black" transform="translate(159.9,4.9)" text-anchor="middle"><tspan x="20" y="16.3">126</tspan></text><rect stroke-width="0" fill="none" width="109.5" height="27.3" transform="translate(5.2,1.4)"/><text font-family="OpenSansCondensedLight" font-size="14pt" fill="black" transform="translate(5.2,1.4)" text-anchor="middle"><tspan x="54.8" y="19.9">VALIDATION</tspan></text><path stroke="#000000" fill="none" transform="translate(5.2,1.4)" d="M 0 0"/></g><g transform="translate(527,406)"><g><g>
<path d="M180,0H0v210h180V0L180,0z" stroke="#000000" stroke-dasharray="none" fill="#FFFFFF"/>
<rect x="7.9" y="9.6" width="164.3" height="190.8" fill="none"/>
<circle fill="none" cx="90" cy="0" r="0.1"/>
<circle fill="none" cx="134.6" cy="0" r="0.1"/>
<circle fill="none" cx="180" cy="53" r="0.1"/>
<circle fill="none" cx="180" cy="105" r="0.1"/>
<circle fill="none" cx="180" cy="157" r="0.1"/>
<circle fill="none" cx="134.6" cy="210" r="0.1"/>
<circle fill="none" cx="90" cy="210" r="0.1"/>
<circle fill="none" cx="45.4" cy="210" r="0.1"/>
<circle fill="none" cx="0" cy="157" r="0.1"/>
<circle fill="none" cx="0" cy="105" r="0.1"/>
<circle fill="none" cx="0" cy="53" r="0.1"/>
<circle fill="none" cx="45.4" cy="0" r="0.1"/>
</g></g><rect stroke="none" stroke-width="1" fill="#FFFFFF" x="0" y="0" width="40" height="20" transform="translate(219.9,94.9)"/><path stroke="#000000" fill="none" d="M180,105 C197,121.9 202.9,88 219.9 104.9"/><text font-family="OpenSansCondensedLight" font-size="14pt" fill="black" transform="translate(219.9,94.9)" text-anchor="middle"><tspan x="20" y="16.3">210</tspan></text><rect stroke-width="0" fill="none" width="164.3" height="190.8" transform="translate(7.9,9.6)"/><text font-family="OpenSansCondensedLight" font-size="14pt" fill="black" transform="translate(7.9,9.6)" text-anchor="middle"><tspan x="82.1" y="16.8">SYNCHRONIZATION</tspan><tspan x="82.1" y="37.8">ENGINE</tspan></text><path stroke="#000000" fill="none" transform="translate(7.9,9.6)" d="M 0 0"/></g><g transform="translate(355,195)"><g><g>
<path d="M190,0H0v30h190V0L190,0z" stroke="#000000" stroke-dasharray="none" fill="#FFFFFF"/>
<rect x="8.3" y="1.4" width="173.4" height="27.3" fill="none"/>
<circle fill="none" cx="95" cy="0" r="0.1"/>
<circle fill="none" cx="142.1" cy="0" r="0.1"/>
<circle fill="none" cx="190" cy="7.6" r="0.1"/>
<circle fill="none" cx="190" cy="15" r="0.1"/>
<circle fill="none" cx="190" cy="22.4" r="0.1"/>
<circle fill="none" cx="142.1" cy="30" r="0.1"/>
<circle fill="none" cx="95" cy="30" r="0.1"/>
<circle fill="none" cx="47.9" cy="30" r="0.1"/>
<circle fill="none" cx="0" cy="22.4" r="0.1"/>
<circle fill="none" cx="0" cy="15" r="0.1"/>
<circle fill="none" cx="0" cy="7.6" r="0.1"/>
<circle fill="none" cx="47.9" cy="0" r="0.1"/>
</g></g><rect stroke="none" stroke-width="1" fill="#FFFFFF" x="0" y="0" width="40" height="20" transform="translate(229.9,4.9)"/><path stroke="#000000" fill="none" d="M190,15 C207,31.9 212.9,-2 229.9 14.9"/><text font-family="OpenSansCondensedLight" font-size="14pt" fill="black" transform="translate(229.9,4.9)" text-anchor="middle"><tspan x="20" y="16.3">120</tspan></text><rect stroke-width="0" fill="none" width="173.4" height="27.3" transform="translate(8.3,1.4)"/><text font-family="OpenSansCondensedLight" font-size="14pt" fill="black" transform="translate(8.3,1.4)" text-anchor="middle"><tspan x="86.7" y="19.9">FIELD VALUES</tspan></text><path stroke="#000000" fill="none" transform="translate(8.3,1.4)" d="M 0 0"/></g><g transform="translate(355,256.2)"><g><g>
<path d="M190,0H0v47.5h190V0L190,0z" stroke="#000000" stroke-dasharray="none" fill="#FFFFFF"/>
<rect x="8.3" y="2.2" width="173.4" height="43.2" fill="none"/>
<circle fill="none" cx="95" cy="0" r="0.1"/>
<circle fill="none" cx="142.1" cy="0" r="0.1"/>
<circle fill="none" cx="190" cy="12" r="0.1"/>
<circle fill="none" cx="190" cy="23.8" r="0.1"/>
<circle fill="none" cx="190" cy="35.5" r="0.1"/>
<circle fill="none" cx="142.1" cy="47.5" r="0.1"/>
<circle fill="none" cx="95" cy="47.5" r="0.1"/>
<circle fill="none" cx="47.9" cy="47.5" r="0.1"/>
<circle fill="none" cx="0" cy="35.5" r="0.1"/>
<circle fill="none" cx="0" cy="23.8" r="0.1"/>
<circle fill="none" cx="0" cy="12" r="0.1"/>
<circle fill="none" cx="47.9" cy="0" r="0.1"/>
</g></g><rect stroke="none" stroke-width="1" fill="#FFFFFF" x="0" y="0" width="40" height="20" transform="translate(229.9,13.7)"/><path stroke="#000000" fill="none" d="M190,23.8 C207,40.7 212.9,6.8 229.9 23.7"/><text font-family="OpenSansCondensedLight" font-size="14pt" fill="black" transform="translate(229.9,13.7)" text-anchor="middle"><tspan x="20" y="16.3">122</tspan></text><rect stroke-width="0" fill="none" width="173.4" height="43.2" transform="translate(8.3,2.2)"/><text font-family="OpenSansCondensedLight" font-size="14pt" fill="black" transform="translate(8.3,2.2)" text-anchor="middle"><tspan x="86.7" y="17.4">FIRST TEST CASE</tspan><tspan x="86.7" y="38.4">DETAILS FILE</tspan></text><path stroke="#000000" fill="none" transform="translate(8.3,2.2)" d="M 0 0"/></g><g><path stroke="black" stroke-dasharray="none" d="M 270 277 307 277" fill="none"/><path fill="black" stroke="black" d="" transform="translate(270,277) scale(1,1) rotate(0)"/><path fill="black" stroke="black" d="M 8 0 L 0 4 L 8 8 z" transform="translate(315,281) scale(1,1) rotate(-180)"/><g><g label-idx="0" cursor="move" transform="translate(288.5, 277)"><rect fill="white" rx="3" ry="3" x="0" y="0" width="0" height="0"/><text text-anchor="middle" font-size="14pt" font-family="OpenSansCondensedLight" y="0.8em" display="none" xml:space="preserve" transform="translate(0,0)"/></g></g></g><g><path stroke="black" stroke-dasharray="none" d="M 585 278 623 278" fill="none"/><path fill="black" stroke="black" d="" transform="translate(585,278) scale(1,1) rotate(0)"/><path fill="black" stroke="black" d="M 8 0 L 0 4 L 8 8 z" transform="translate(631,282) scale(1,1) rotate(-180)"/><g><g label-idx="0" cursor="move" transform="translate(604, 278)"><rect fill="white" rx="3" ry="3" x="0" y="0" width="0" height="0"/><text text-anchor="middle" font-size="14pt" font-family="OpenSansCondensedLight" y="0.8em" display="none" xml:space="preserve" transform="translate(0,0)"/></g></g></g><g transform="translate(225,465)"><g><g>
<path d="M130,0H0v30h130V0L130,0z" stroke="#000000" stroke-dasharray="none" fill="#FFFFFF"/>
<rect x="5.7" y="1.4" width="118.6" height="27.3" fill="none"/>
<circle fill="none" cx="65" cy="0" r="0.1"/>
<circle fill="none" cx="97.2" cy="0" r="0.1"/>
<circle fill="none" cx="130" cy="7.6" r="0.1"/>
<circle fill="none" cx="130" cy="15" r="0.1"/>
<circle fill="none" cx="130" cy="22.4" r="0.1"/>
<circle fill="none" cx="97.2" cy="30" r="0.1"/>
<circle fill="none" cx="65" cy="30" r="0.1"/>
<circle fill="none" cx="32.8" cy="30" r="0.1"/>
<circle fill="none" cx="0" cy="22.4" r="0.1"/>
<circle fill="none" cx="0" cy="15" r="0.1"/>
<circle fill="none" cx="0" cy="7.6" r="0.1"/>
<circle fill="none" cx="32.8" cy="0" r="0.1"/>
</g></g><rect stroke="none" stroke-width="1" fill="#FFFFFF" x="0" y="0" width="40" height="20" transform="translate(169.9,4.9)"/><path stroke="#000000" fill="none" d="M130,15 C146.9,31.9 152.9,-2 169.9 14.9"/><text font-family="OpenSansCondensedLight" font-size="14pt" fill="black" transform="translate(169.9,4.9)" text-anchor="middle"><tspan x="20" y="16.3">128</tspan></text><rect stroke-width="0" fill="none" width="118.6" height="27.3" transform="translate(5.7,1.4)"/><text font-family="OpenSansCondensedLight" font-size="14pt" fill="black" transform="translate(5.7,1.4)" text-anchor="middle"><tspan x="59.3" y="19.9">TRANSFORMATION</tspan></text><path stroke="#000000" fill="none" transform="translate(5.7,1.4)" d="M 0 0"/></g><g transform="translate(225,525)"><g><g>
<path d="M130,0H0v75h130V0L130,0z" stroke="#000000" stroke-dasharray="none" fill="#FFFFFF"/>
<rect x="5.7" y="3.4" width="118.6" height="68.2" fill="none"/>
<circle fill="none" cx="65" cy="0" r="0.1"/>
<circle fill="none" cx="97.2" cy="0" r="0.1"/>
<circle fill="none" cx="130" cy="18.9" r="0.1"/>
<circle fill="none" cx="130" cy="37.5" r="0.1"/>
<circle fill="none" cx="130" cy="56.1" r="0.1"/>
<circle fill="none" cx="97.2" cy="75" r="0.1"/>
<circle fill="none" cx="65" cy="75" r="0.1"/>
<circle fill="none" cx="32.8" cy="75" r="0.1"/>
<circle fill="none" cx="0" cy="56.1" r="0.1"/>
<circle fill="none" cx="0" cy="37.5" r="0.1"/>
<circle fill="none" cx="0" cy="18.9" r="0.1"/>
<circle fill="none" cx="32.8" cy="0" r="0.1"/>
</g></g><rect stroke="none" stroke-width="1" fill="#FFFFFF" x="0" y="0" width="40" height="20" transform="translate(169.9,27.4)"/><path stroke="#000000" fill="none" d="M130,37.5 C146.9,54.4 152.9,20.5 169.9 37.4"/><text font-family="OpenSansCondensedLight" font-size="14pt" fill="black" transform="translate(169.9,27.4)" text-anchor="middle"><tspan x="20" y="16.3">130</tspan></text><rect stroke-width="0" fill="none" width="118.6" height="68.2" transform="translate(5.7,3.4)"/><text font-family="OpenSansCondensedLight" font-size="14pt" fill="black" transform="translate(5.7,3.4)" text-anchor="middle"><tspan x="59.3" y="8.9">SECOND</tspan><tspan x="59.3" y="29.9">TEST CASE</tspan><tspan x="59.3" y="50.9">DETAILS</tspan><tspan x="59.3" y="71.9">FILE</tspan></text><path stroke="#000000" fill="none" transform="translate(5.7,3.4)" d="M 0 0"/></g><g transform="translate(557,480.4)"><g><g>
<path d="M120,0H0v30h120V0L120,0z" stroke="#000000" stroke-dasharray="none" fill="#FFFFFF"/>
<rect x="5.2" y="1.4" width="109.5" height="27.3" fill="none"/>
<circle fill="none" cx="60" cy="0" r="0.1"/>
<circle fill="none" cx="89.7" cy="0" r="0.1"/>
<circle fill="none" cx="120" cy="7.6" r="0.1"/>
<circle fill="none" cx="120" cy="15" r="0.1"/>
<circle fill="none" cx="120" cy="22.4" r="0.1"/>
<circle fill="none" cx="89.7" cy="30" r="0.1"/>
<circle fill="none" cx="60" cy="30" r="0.1"/>
<circle fill="none" cx="30.3" cy="30" r="0.1"/>
<circle fill="none" cx="0" cy="22.4" r="0.1"/>
<circle fill="none" cx="0" cy="15" r="0.1"/>
<circle fill="none" cx="0" cy="7.6" r="0.1"/>
<circle fill="none" cx="30.3" cy="0" r="0.1"/>
</g></g><rect stroke="none" stroke-width="1" fill="#FFFFFF" x="0" y="0" width="40" height="20" transform="translate(159.9,4.9)"/><path stroke="#000000" fill="none" d="M120,15 C137,31.9 142.9,-2 159.9 14.9"/><text font-family="OpenSansCondensedLight" font-size="14pt" fill="black" transform="translate(159.9,4.9)" text-anchor="middle"><tspan x="20" y="16.3">132</tspan></text><rect stroke-width="0" fill="none" width="109.5" height="27.3" transform="translate(5.2,1.4)"/><text font-family="OpenSansCondensedLight" font-size="14pt" fill="black" transform="translate(5.2,1.4)" text-anchor="middle"><tspan x="54.8" y="19.9">TEST ID</tspan></text><path stroke="#000000" fill="none" transform="translate(5.2,1.4)" d="M 0 0"/></g><g><path stroke="black" stroke-dasharray="none" d="M 383 345 335 399" fill="none"/><path fill="black" stroke="black" d="" transform="translate(383,345) scale(1,1) rotate(-228.5)"/><path fill="black" stroke="black" d="M 8 0 L 0 4 L 8 8 z" transform="translate(327,402.4) scale(1,1) rotate(-48.5)"/><g><g label-idx="0" cursor="move" transform="translate(359, 372)"><rect fill="white" rx="3" ry="3" x="0" y="0" width="0" height="0"/><text text-anchor="middle" font-size="14pt" font-family="OpenSansCondensedLight" y="0.8em" display="none" xml:space="preserve" transform="translate(0,0)"/></g></g></g><g transform="translate(549.5,547.5)"><g><g>
<path d="M135,0H0v30h135V0L135,0z" stroke="#000000" stroke-dasharray="none" fill="#FFFFFF"/>
<rect x="5.9" y="1.4" width="123.2" height="27.3" fill="none"/>
<circle fill="none" cx="67.5" cy="0" r="0.1"/>
<circle fill="none" cx="101" cy="0" r="0.1"/>
<circle fill="none" cx="135" cy="7.6" r="0.1"/>
<circle fill="none" cx="135" cy="15" r="0.1"/>
<circle fill="none" cx="135" cy="22.4" r="0.1"/>
<circle fill="none" cx="101" cy="30" r="0.1"/>
<circle fill="none" cx="67.5" cy="30" r="0.1"/>
<circle fill="none" cx="34.1" cy="30" r="0.1"/>
<circle fill="none" cx="0" cy="22.4" r="0.1"/>
<circle fill="none" cx="0" cy="15" r="0.1"/>
<circle fill="none" cx="0" cy="7.6" r="0.1"/>
<circle fill="none" cx="34.1" cy="0" r="0.1"/>
</g></g><rect stroke="none" stroke-width="1" fill="#FFFFFF" x="0" y="0" width="40" height="20" transform="translate(174.9,4.9)"/><path stroke="#000000" fill="none" d="M135,15 C152,31.9 157.9,-2 174.9 14.9"/><text font-family="OpenSansCondensedLight" font-size="14pt" fill="black" transform="translate(174.9,4.9)" text-anchor="middle"><tspan x="20" y="16.3">134</tspan></text><rect stroke-width="0" fill="none" width="123.2" height="27.3" transform="translate(5.9,1.4)"/><text font-family="OpenSansCondensedLight" font-size="14pt" fill="black" transform="translate(5.9,1.4)" text-anchor="middle"><tspan x="61.6" y="19.9">SYNCHRONIZATION</tspan></text><path stroke="#000000" fill="none" transform="translate(5.9,1.4)" d="M 0 0"/></g><g><path stroke="black" stroke-dasharray="none" d="M 517 345 567 400" fill="none"/><path fill="black" stroke="black" d="" transform="translate(517,345) scale(1,1) rotate(48)"/><path fill="black" stroke="black" d="M 8 0 L 0 4 L 8 8 z" transform="translate(569,408.7) scale(1,1) rotate(-132)"/><g><g label-idx="0" cursor="move" transform="translate(542, 372.5)"><rect fill="white" rx="3" ry="3" x="0" y="0" width="0" height="0"/><text text-anchor="middle" font-size="14pt" font-family="OpenSansCondensedLight" y="0.8em" display="none" xml:space="preserve" transform="translate(0,0)"/></g></g></g><g><path stroke="black" stroke-dasharray="none" d="M 376 511 519 511" fill="none"/><path fill="black" stroke="black" d="" transform="translate(376,511) scale(1,1) rotate(0)"/><path fill="black" stroke="black" d="M 8 0 L 0 4 L 8 8 z" transform="translate(527,515) scale(1,1) rotate(-180)"/><g><g label-idx="0" cursor="move" transform="translate(447.5, 511)"><rect fill="white" rx="3" ry="3" x="0" y="0" width="0" height="0"/><text text-anchor="middle" font-size="14pt" font-family="OpenSansCondensedLight" y="0.8em" display="none" xml:space="preserve" transform="translate(0,0)"/></g></g></g></g><defs/></svg>