<svg xmlns="http://www.w3.org/2000/svg" xmlns:xlink="http://www.w3.org/1999/xlink" version="1.1" width="600" height="833.9" viewBox="165 30 600 833.9"><g><g transform="translate(240,30)"><g><g>
<path data-relative-d="M{width - min(1cm,width*0.2)},0  H{min(1cm,width*0.2)}  C{min(1cm,width*0.2)/3},0  0,{height/6}  0,{height/2}  C0,{height - height/6}  {min(1cm,width*0.2)/3},{height}  {min(1cm,width*0.2)},{height}  H{width - min(1cm,width*0.2)}  C{width - (min(1cm,width*0.2)/3)},{height}  {width},{height - height/6}  {width},{height/2}  C{width},{height/6}  {width - (min(1cm,width*0.2)/3)},0  {width - min(1cm,width*0.2)},0  z" d="M189,0  H37.8  C12.6,0  0,6.8  0,20.4  C0,33.9  12.6,40.7  37.8,40.7  H189  C214.2,40.7  226.8,33.9  226.8,20.4  C226.8,6.8  214.2,0  189,0  z" stroke="#000000" stroke-dasharray="none" fill="#FFFFFF"/>
<path data-relative-d="M{5mm},{1mm} V{height-0.5mm} H{width-5mm} V{1mm} z" d="M18.9,3.8 V38.8 H207.9 V3.8 z" fill="none"/>

<path fill="none" data-relative-d="M{0.5*width},0 l0.1,0 l0,0.1 z" d="M113.4,0 l0.1,0 l0,0.1 z"/>
<path fill="none" data-relative-d="M{0.8*width},0 l0.1,0 l0,0.1 z" d="M170.1,0 l0.1,0 l0,0.1 z"/>
<path fill="none" data-relative-d="M{width},{0.5*height} l0.1,0 l0,0.1 z" d="M226.8,20.4 l0.1,0 l0,0.1 z"/>
<path fill="none" data-relative-d="M{width},{0.5*height} l0.1,0 l0,0.1 z" d="M226.8,20.4 l0.1,0 l0,0.1 z"/>
<path fill="none" data-relative-d="M{width},{0.5*height} l0.1,0 l0,0.1 z" d="M226.8,20.4 l0.1,0 l0,0.1 z"/>
<path fill="none" data-relative-d="M{0.8*width},{height} l0.1,0 l0,0.1 z" d="M170.1,40.7 l0.1,0 l0,0.1 z"/>
<path fill="none" data-relative-d="M{0.5*width},{height} l0.1,0 l0,0.1 z" d="M113.4,40.7 l0.1,0 l0,0.1 z"/>
<path fill="none" data-relative-d="M{0.3*width},{height} l0.1,0 l0,0.1 z" d="M56.7,40.7 l0.1,0 l0,0.1 z"/>
<path fill="none" data-relative-d="M0,{0.5*height} l0.1,0 l0,0.1 z" d="M0,20.4 l0.1,0 l0,0.1 z"/>
<path fill="none" data-relative-d="M0,{0.5*height} l0.1,0 l0,0.1 z" d="M0,20.4 l0.1,0 l0,0.1 z"/>
<path fill="none" data-relative-d="M0,{0.5*height} l0.1,0 l0,0.1 z" d="M0,20.4 l0.1,0 l0,0.1 z"/>
<path fill="none" data-relative-d="M{0.3*width},0 l0.1,0 l0,0.1 z" d="M56.7,0 l0.1,0 l0,0.1 z"/>
</g></g><rect stroke="none" stroke-width="0" fill="#FFFFFF" x="0" y="0" width="0" height="0" transform="translate(226.8,20.4)"/><path stroke="#000000" fill="none" d=""/><text font-family="OpenSansCondensedLight" font-size="14pt" fill="black" transform="translate(226.8,20.4)"/><rect stroke-width="0" fill="none" width="189" height="35" transform="translate(18.9,3.8)"/><text font-family="OpenSansCondensedLight" font-size="14pt" fill="black" transform="translate(18.9,3.8)" text-anchor="middle"><tspan x="94.5" y="23.8">START</tspan></text><path stroke="#000000" fill="none" transform="translate(18.9,3.8)" d="M 0 0"/></g><g transform="translate(240,93.7)"><g><g>
<path data-relative-d="M{width},0 H0 V{height} H{width} z" d="M225,0 H0 V30 H225 z" stroke="#000000" stroke-dasharray="none" fill="#FFFFFF"/>
<path data-relative-d="M{0.1cm},{0.1cm} V{height-0.1cm} H{width-0.1cm} V{0.1cm} z" d="M3.8,3.8 V28.1 H221.2 V3.8 z" fill="none"/>
<path fill="none" data-relative-d="M{0.5*width},0 l0.1,0 l0,0.1 z" d="M112.5,0 l0.1,0 l0,0.1 z"/>
<path fill="none" data-relative-d="M{0.8*width},0 l0.1,0 l0,0.1 z" d="M168.8,0 l0.1,0 l0,0.1 z"/>
<path fill="none" data-relative-d="M{width},{0.3*height} l0.1,0 l0,0.1 z" d="M225,7.5 l0.1,0 l0,0.1 z"/>
<path fill="none" data-relative-d="M{width},{0.5*height} l0.1,0 l0,0.1 z" d="M225,15 l0.1,0 l0,0.1 z"/>
<path fill="none" data-relative-d="M{width},{0.8*height} l0.1,0 l0,0.1 z" d="M225,22.5 l0.1,0 l0,0.1 z"/>
<path fill="none" data-relative-d="M{0.8*width},{height} l0.1,0 l0,0.1 z" d="M168.8,30 l0.1,0 l0,0.1 z"/>
<path fill="none" data-relative-d="M{0.5*width},{height} l0.1,0 l0,0.1 z" d="M112.5,30 l0.1,0 l0,0.1 z"/>
<path fill="none" data-relative-d="M{0.3*width},{height} l0.1,0 l0,0.1 z" d="M56.3,30 l0.1,0 l0,0.1 z"/>
<path fill="none" data-relative-d="M0,{0.8*height} l0.1,0 l0,0.1 z" d="M0,22.5 l0.1,0 l0,0.1 z"/>
<path fill="none" data-relative-d="M0,{0.5*height} l0.1,0 l0,0.1 z" d="M0,15 l0.1,0 l0,0.1 z"/>
<path fill="none" data-relative-d="M0,{0.3*height} l0.1,0 l0,0.1 z" d="M0,7.5 l0.1,0 l0,0.1 z"/>
<path fill="none" data-relative-d="M{0.3*width},0 l0.1,0 l0,0.1 z" d="M56.3,0 l0.1,0 l0,0.1 z"/>
</g></g><rect stroke="none" stroke-width="1" fill="#FFFFFF" x="0" y="0" width="40" height="20" transform="translate(265,5)"/><path stroke="#000000" fill="none" d="M225.1,15.1 C242,32 248,-1.9 265 15"/><text font-family="OpenSansCondensedLight" font-size="14pt" fill="black" transform="translate(265,5)" text-anchor="middle"><tspan x="20" y="16.3">302</tspan></text><rect stroke-width="0" fill="none" width="217.4" height="24.3" transform="translate(3.8,3.8)"/><text font-family="OpenSansCondensedLight" font-size="14pt" fill="black" transform="translate(3.8,3.8)" text-anchor="middle"><tspan x="108.7" y="18.5">RECEIVE REQUEST</tspan></text><path stroke="#000000" fill="none" transform="translate(3.8,3.8)" d="M 0 0"/></g><g><path stroke="black" stroke-dasharray="none" d="M 353 71 353 86" fill="none"/><path fill="black" stroke="black" d="" transform="translate(353,71) scale(1,1) rotate(-270)"/><path fill="black" stroke="black" d="M 8 0 L 0 4 L 8 8 z" transform="translate(349,94) scale(1,1) rotate(-90)"/><g><g label-idx="0" cursor="move" transform="translate(353, 78.5)"><rect fill="white" rx="3" ry="3" x="0" y="0" width="0" height="0"/><text text-anchor="middle" font-size="14pt" font-family="OpenSansCondensedLight" y="0.8em" display="none" xml:space="preserve" transform="translate(0,0)"/></g></g></g><g transform="translate(225.9,146.7)"><g><g>
<path data-relative-d="M{width},0 H0 V{height} H{width} z" d="M255,0 H0 V30 H255 z" stroke="#000000" stroke-dasharray="none" fill="#FFFFFF"/>
<path data-relative-d="M{0.1cm},{0.1cm} V{height-0.1cm} H{width-0.1cm} V{0.1cm} z" d="M3.8,3.8 V28.1 H251.2 V3.8 z" fill="none"/>
<path fill="none" data-relative-d="M{0.5*width},0 l0.1,0 l0,0.1 z" d="M127.5,0 l0.1,0 l0,0.1 z"/>
<path fill="none" data-relative-d="M{0.8*width},0 l0.1,0 l0,0.1 z" d="M191.3,0 l0.1,0 l0,0.1 z"/>
<path fill="none" data-relative-d="M{width},{0.3*height} l0.1,0 l0,0.1 z" d="M255,7.5 l0.1,0 l0,0.1 z"/>
<path fill="none" data-relative-d="M{width},{0.5*height} l0.1,0 l0,0.1 z" d="M255,15 l0.1,0 l0,0.1 z"/>
<path fill="none" data-relative-d="M{width},{0.8*height} l0.1,0 l0,0.1 z" d="M255,22.5 l0.1,0 l0,0.1 z"/>
<path fill="none" data-relative-d="M{0.8*width},{height} l0.1,0 l0,0.1 z" d="M191.3,30 l0.1,0 l0,0.1 z"/>
<path fill="none" data-relative-d="M{0.5*width},{height} l0.1,0 l0,0.1 z" d="M127.5,30 l0.1,0 l0,0.1 z"/>
<path fill="none" data-relative-d="M{0.3*width},{height} l0.1,0 l0,0.1 z" d="M63.8,30 l0.1,0 l0,0.1 z"/>
<path fill="none" data-relative-d="M0,{0.8*height} l0.1,0 l0,0.1 z" d="M0,22.5 l0.1,0 l0,0.1 z"/>
<path fill="none" data-relative-d="M0,{0.5*height} l0.1,0 l0,0.1 z" d="M0,15 l0.1,0 l0,0.1 z"/>
<path fill="none" data-relative-d="M0,{0.3*height} l0.1,0 l0,0.1 z" d="M0,7.5 l0.1,0 l0,0.1 z"/>
<path fill="none" data-relative-d="M{0.3*width},0 l0.1,0 l0,0.1 z" d="M63.8,0 l0.1,0 l0,0.1 z"/>
</g></g><rect stroke="none" stroke-width="1" fill="#FFFFFF" x="0" y="0" width="40" height="20" transform="translate(295,5)"/><path stroke="#000000" fill="none" d="M255.1,15.1 C272,32 278,-1.9 295 15"/><text font-family="OpenSansCondensedLight" font-size="14pt" fill="black" transform="translate(295,5)" text-anchor="middle"><tspan x="20" y="16.3">304</tspan></text><rect stroke-width="0" fill="none" width="247.4" height="24.3" transform="translate(3.8,3.8)"/><text font-family="OpenSansCondensedLight" font-size="14pt" fill="black" transform="translate(3.8,3.8)" text-anchor="middle"><tspan x="123.7" y="18.5">RETRIEVE TEST CASE FILE</tspan></text><path stroke="#000000" fill="none" transform="translate(3.8,3.8)" d="M 0 0"/></g><g><path stroke="black" stroke-dasharray="none" d="M 353 124 353 139" fill="none"/><path fill="black" stroke="black" d="" transform="translate(353,124) scale(1,1) rotate(-270)"/><path fill="black" stroke="black" d="M 8 0 L 0 4 L 8 8 z" transform="translate(349,147) scale(1,1) rotate(-90)"/><g><g label-idx="0" cursor="move" transform="translate(353, 131.5)"><rect fill="white" rx="3" ry="3" x="0" y="0" width="0" height="0"/><text text-anchor="middle" font-size="14pt" font-family="OpenSansCondensedLight" y="0.8em" display="none" xml:space="preserve" transform="translate(0,0)"/></g></g></g><g transform="translate(225.9,195.4)"><g><g>
<path data-relative-d="M{width},0 H0 V{height} H{width} z" d="M255,0 H0 V47.7 H255 z" stroke="#000000" stroke-dasharray="none" fill="#FFFFFF"/>
<path data-relative-d="M{0.1cm},{0.1cm} V{height-0.1cm} H{width-0.1cm} V{0.1cm} z" d="M3.8,3.8 V45.8 H251.2 V3.8 z" fill="none"/>
<path fill="none" data-relative-d="M{0.5*width},0 l0.1,0 l0,0.1 z" d="M127.5,0 l0.1,0 l0,0.1 z"/>
<path fill="none" data-relative-d="M{0.8*width},0 l0.1,0 l0,0.1 z" d="M191.3,0 l0.1,0 l0,0.1 z"/>
<path fill="none" data-relative-d="M{width},{0.3*height} l0.1,0 l0,0.1 z" d="M255,11.9 l0.1,0 l0,0.1 z"/>
<path fill="none" data-relative-d="M{width},{0.5*height} l0.1,0 l0,0.1 z" d="M255,23.8 l0.1,0 l0,0.1 z"/>
<path fill="none" data-relative-d="M{width},{0.8*height} l0.1,0 l0,0.1 z" d="M255,35.7 l0.1,0 l0,0.1 z"/>
<path fill="none" data-relative-d="M{0.8*width},{height} l0.1,0 l0,0.1 z" d="M191.3,47.7 l0.1,0 l0,0.1 z"/>
<path fill="none" data-relative-d="M{0.5*width},{height} l0.1,0 l0,0.1 z" d="M127.5,47.7 l0.1,0 l0,0.1 z"/>
<path fill="none" data-relative-d="M{0.3*width},{height} l0.1,0 l0,0.1 z" d="M63.8,47.7 l0.1,0 l0,0.1 z"/>
<path fill="none" data-relative-d="M0,{0.8*height} l0.1,0 l0,0.1 z" d="M0,35.7 l0.1,0 l0,0.1 z"/>
<path fill="none" data-relative-d="M0,{0.5*height} l0.1,0 l0,0.1 z" d="M0,23.8 l0.1,0 l0,0.1 z"/>
<path fill="none" data-relative-d="M0,{0.3*height} l0.1,0 l0,0.1 z" d="M0,11.9 l0.1,0 l0,0.1 z"/>
<path fill="none" data-relative-d="M{0.3*width},0 l0.1,0 l0,0.1 z" d="M63.8,0 l0.1,0 l0,0.1 z"/>
</g></g><rect stroke="none" stroke-width="1" fill="#FFFFFF" x="0" y="0" width="40" height="20" transform="translate(295,13.8)"/><path stroke="#000000" fill="none" d="M255.1,23.9 C272,40.8 278,6.9 295 23.8"/><text font-family="OpenSansCondensedLight" font-size="14pt" fill="black" transform="translate(295,13.8)" text-anchor="middle"><tspan x="20" y="16.3">306</tspan></text><rect stroke-width="0" fill="none" width="247.4" height="42" transform="translate(3.8,3.8)"/><text font-family="OpenSansCondensedLight" font-size="14pt" fill="black" transform="translate(3.8,3.8)" text-anchor="middle"><tspan x="123.7" y="16.8">RECEIVE FIELD NAMES</tspan><tspan x="123.7" y="37.8">AND FIELD VALUES</tspan></text><path stroke="#000000" fill="none" transform="translate(3.8,3.8)" d="M 0 0"/></g><g><path stroke="black" stroke-dasharray="none" d="M 353 177 353 187" fill="none"/><path fill="black" stroke="black" d="" transform="translate(353,177) scale(1,1) rotate(-270)"/><path fill="black" stroke="black" d="M 8 0 L 0 4 L 8 8 z" transform="translate(349,195) scale(1,1) rotate(-90)"/><g><g label-idx="0" cursor="move" transform="translate(353, 182)"><rect fill="white" rx="3" ry="3" x="0" y="0" width="0" height="0"/><text text-anchor="middle" font-size="14pt" font-family="OpenSansCondensedLight" y="0.8em" display="none" xml:space="preserve" transform="translate(0,0)"/></g></g></g><g transform="translate(225.9,266)"><g><g>
<path data-relative-d="M{width},0 H0 V{height} H{width} z" d="M255,0 H0 V30 H255 z" stroke="#000000" stroke-dasharray="none" fill="#FFFFFF"/>
<path data-relative-d="M{0.1cm},{0.1cm} V{height-0.1cm} H{width-0.1cm} V{0.1cm} z" d="M3.8,3.8 V28.1 H251.2 V3.8 z" fill="none"/>
<path fill="none" data-relative-d="M{0.5*width},0 l0.1,0 l0,0.1 z" d="M127.5,0 l0.1,0 l0,0.1 z"/>
<path fill="none" data-relative-d="M{0.8*width},0 l0.1,0 l0,0.1 z" d="M191.3,0 l0.1,0 l0,0.1 z"/>
<path fill="none" data-relative-d="M{width},{0.3*height} l0.1,0 l0,0.1 z" d="M255,7.5 l0.1,0 l0,0.1 z"/>
<path fill="none" data-relative-d="M{width},{0.5*height} l0.1,0 l0,0.1 z" d="M255,15 l0.1,0 l0,0.1 z"/>
<path fill="none" data-relative-d="M{width},{0.8*height} l0.1,0 l0,0.1 z" d="M255,22.5 l0.1,0 l0,0.1 z"/>
<path fill="none" data-relative-d="M{0.8*width},{height} l0.1,0 l0,0.1 z" d="M191.3,30 l0.1,0 l0,0.1 z"/>
<path fill="none" data-relative-d="M{0.5*width},{height} l0.1,0 l0,0.1 z" d="M127.5,30 l0.1,0 l0,0.1 z"/>
<path fill="none" data-relative-d="M{0.3*width},{height} l0.1,0 l0,0.1 z" d="M63.8,30 l0.1,0 l0,0.1 z"/>
<path fill="none" data-relative-d="M0,{0.8*height} l0.1,0 l0,0.1 z" d="M0,22.5 l0.1,0 l0,0.1 z"/>
<path fill="none" data-relative-d="M0,{0.5*height} l0.1,0 l0,0.1 z" d="M0,15 l0.1,0 l0,0.1 z"/>
<path fill="none" data-relative-d="M0,{0.3*height} l0.1,0 l0,0.1 z" d="M0,7.5 l0.1,0 l0,0.1 z"/>
<path fill="none" data-relative-d="M{0.3*width},0 l0.1,0 l0,0.1 z" d="M63.8,0 l0.1,0 l0,0.1 z"/>
</g></g><rect stroke="none" stroke-width="1" fill="#FFFFFF" x="0" y="0" width="40" height="20" transform="translate(295,5)"/><path stroke="#000000" fill="none" d="M255.1,15.1 C272,32 278,-1.9 295 15"/><text font-family="OpenSansCondensedLight" font-size="14pt" fill="black" transform="translate(295,5)" text-anchor="middle"><tspan x="20" y="16.3">308</tspan></text><rect stroke-width="0" fill="none" width="247.4" height="24.3" transform="translate(3.8,3.8)"/><text font-family="OpenSansCondensedLight" font-size="14pt" fill="black" transform="translate(3.8,3.8)" text-anchor="middle"><tspan x="123.7" y="8">GENERATE FIRST TEST</tspan><tspan x="123.7" y="29">CASE DETAILS FILE</tspan></text><path stroke="#000000" fill="none" transform="translate(3.8,3.8)" d="M 0 0"/></g><g><path stroke="black" stroke-dasharray="none" d="M 353 243 353 258" fill="none"/><path fill="black" stroke="black" d="" transform="translate(353,243) scale(1,1) rotate(-270)"/><path fill="black" stroke="black" d="M 8 0 L 0 4 L 8 8 z" transform="translate(349,266) scale(1,1) rotate(-90)"/><g><g label-idx="0" cursor="move" transform="translate(353, 250.5)"><rect fill="white" rx="3" ry="3" x="0" y="0" width="0" height="0"/><text text-anchor="middle" font-size="14pt" font-family="OpenSansCondensedLight" y="0.8em" display="none" xml:space="preserve" transform="translate(0,0)"/></g></g></g><g transform="translate(223.8,316.7)"><g><g>
<path d="M127.5,0L0,30l127.5,30l127.5,-30L127.5,0L127.5,0z" stroke="#000000" stroke-dasharray="none" fill="#FFFFFF"/>
<rect x="51.5" y="18" fill="none" width="151.6" height="24"/>
<circle fill="none" cx="127.5" cy="0" r="0.1"/>
<circle fill="none" cx="176.1" cy="11.4" r="0.1"/>
<circle fill="none" cx="219.2" cy="21.6" r="0.1"/>
<circle fill="none" cx="255" cy="30" r="0.1"/>
<circle fill="none" cx="219.2" cy="38.4" r="0.1"/>
<circle fill="none" cx="175.7" cy="48.7" r="0.1"/>
<circle fill="none" cx="127.5" cy="60" r="0.1"/>
<circle fill="none" cx="79.4" cy="48.7" r="0.1"/>
<circle fill="none" cx="35.7" cy="38.4" r="0.1"/>
<circle fill="none" cx="0" cy="30" r="0.1"/>
<circle fill="none" cx="35.7" cy="21.6" r="0.1"/>
<circle fill="none" cx="79.1" cy="11.4" r="0.1"/>
</g></g><rect stroke="none" stroke-width="1" fill="#FFFFFF" x="0" y="0" width="40" height="20" transform="translate(294.9,19.9)"/><path stroke="#000000" fill="none" d="M255,30 C271.9,46.9 277.9,13 294.9 29.9"/><text font-family="OpenSansCondensedLight" font-size="14pt" fill="black" transform="translate(294.9,19.9)" text-anchor="middle"><tspan x="20" y="16.3">310</tspan></text><rect stroke-width="0" fill="none" width="151.6" height="24" transform="translate(51.5,18)"/><text font-family="OpenSansCondensedLight" font-size="14pt" fill="black" transform="translate(51.5,18)" text-anchor="middle"><tspan x="75.8" y="7.8">STEPS</tspan><tspan x="75.8" y="28.8">CONFORM?</tspan></text><path stroke="#000000" fill="none" transform="translate(51.5,18)" d="M 0 0"/></g><g><path stroke="black" stroke-dasharray="none" d="M 351 296 351 309" fill="none"/><path fill="black" stroke="black" d="" transform="translate(351,296) scale(1,1) rotate(-270)"/><path fill="black" stroke="black" d="M 8 0 L 0 4 L 8 8 z" transform="translate(347,317) scale(1,1) rotate(-90)"/><g><g label-idx="0" cursor="move" transform="translate(351, 302.5)"><rect fill="white" rx="3" ry="3" x="0" y="0" width="0" height="0"/><text text-anchor="middle" font-size="14pt" font-family="OpenSansCondensedLight" y="0.8em" display="none" xml:space="preserve" transform="translate(0,0)"/></g></g></g><g transform="translate(225.9,465.6)"><g><g>
<path d="M127.5,0L0,45l127.5,45l127.5,-45L127.5,0L127.5,0z" stroke="#000000" stroke-dasharray="none" fill="#FFFFFF"/>
<rect x="51.5" y="27" fill="none" width="151.6" height="36"/>
<circle fill="none" cx="127.5" cy="0" r="0.1"/>
<circle fill="none" cx="176.1" cy="17.1" r="0.1"/>
<circle fill="none" cx="219.2" cy="32.4" r="0.1"/>
<circle fill="none" cx="255" cy="45" r="0.1"/>
<circle fill="none" cx="219.2" cy="57.6" r="0.1"/>
<circle fill="none" cx="175.7" cy="73" r="0.1"/>
<circle fill="none" cx="127.5" cy="90" r="0.1"/>
<circle fill="none" cx="79.4" cy="73" r="0.1"/>
<circle fill="none" cx="35.7" cy="57.6" r="0.1"/>
<circle fill="none" cx="0" cy="45" r="0.1"/>
<circle fill="none" cx="35.7" cy="32.4" r="0.1"/>
<circle fill="none" cx="79.1" cy="17.1" r="0.1"/>
</g></g><rect stroke="none" stroke-width="1" fill="#FFFFFF" x="0" y="0" width="40" height="20" transform="translate(294.9,34.9)"/><path stroke="#000000" fill="none" d="M255,45 C271.9,61.9 277.9,28 294.9 44.9"/><text font-family="OpenSansCondensedLight" font-size="14pt" fill="black" transform="translate(294.9,34.9)" text-anchor="middle"><tspan x="20" y="16.3">314</tspan></text><rect stroke-width="0" fill="none" width="151.6" height="36" transform="translate(51.5,27)"/><text font-family="OpenSansCondensedLight" font-size="14pt" fill="black" transform="translate(51.5,27)" text-anchor="middle"><tspan x="75.8" y="3.3">COMPUTER</tspan><tspan x="75.8" y="24.3">LANGUAGE</tspan><tspan x="75.8" y="45.3">CONFORMS?</tspan></text><path stroke="#000000" fill="none" transform="translate(51.5,27)" d="M 0 0"/></g><g><path stroke="black" stroke-dasharray="none" d="M 479 345 600 345 600 450 360 450 356 459" fill="none"/><path fill="black" stroke="black" d="" transform="translate(479,345) scale(1,1) rotate(0)"/><path fill="black" stroke="black" d="M 8 0 L 0 4 L 8 8 z" transform="translate(349.3,464.4) scale(1,1) rotate(-66.4)"/><g><g label-idx="0" cursor="move" transform="translate(588.1, 450)"><rect fill="white" rx="3" ry="3" x="0" y="0" width="0" height="0"/><text text-anchor="middle" font-size="14pt" font-family="OpenSansCondensedLight" y="0.8em" display="none" xml:space="preserve" transform="translate(0,0)"/></g></g></g><g transform="translate(223.8,414.7)"><g><g>
<path data-relative-d="M{width},0 H0 V{height} H{width} z" d="M259.2,0 H0 V26.7 H259.2 z" stroke="#000000" stroke-dasharray="none" fill="#FFFFFF"/>
<path data-relative-d="M{0.1cm},{0.1cm} V{height-0.1cm} H{width-0.1cm} V{0.1cm} z" d="M3.8,3.8 V24.8 H255.4 V3.8 z" fill="none"/>
<path fill="none" data-relative-d="M{0.5*width},0 l0.1,0 l0,0.1 z" d="M129.6,0 l0.1,0 l0,0.1 z"/>
<path fill="none" data-relative-d="M{0.8*width},0 l0.1,0 l0,0.1 z" d="M194.4,0 l0.1,0 l0,0.1 z"/>
<path fill="none" data-relative-d="M{width},{0.3*height} l0.1,0 l0,0.1 z" d="M259.2,6.7 l0.1,0 l0,0.1 z"/>
<path fill="none" data-relative-d="M{width},{0.5*height} l0.1,0 l0,0.1 z" d="M259.2,13.3 l0.1,0 l0,0.1 z"/>
<path fill="none" data-relative-d="M{width},{0.8*height} l0.1,0 l0,0.1 z" d="M259.2,20 l0.1,0 l0,0.1 z"/>
<path fill="none" data-relative-d="M{0.8*width},{height} l0.1,0 l0,0.1 z" d="M194.4,26.7 l0.1,0 l0,0.1 z"/>
<path fill="none" data-relative-d="M{0.5*width},{height} l0.1,0 l0,0.1 z" d="M129.6,26.7 l0.1,0 l0,0.1 z"/>
<path fill="none" data-relative-d="M{0.3*width},{height} l0.1,0 l0,0.1 z" d="M64.8,26.7 l0.1,0 l0,0.1 z"/>
<path fill="none" data-relative-d="M0,{0.8*height} l0.1,0 l0,0.1 z" d="M0,20 l0.1,0 l0,0.1 z"/>
<path fill="none" data-relative-d="M0,{0.5*height} l0.1,0 l0,0.1 z" d="M0,13.3 l0.1,0 l0,0.1 z"/>
<path fill="none" data-relative-d="M0,{0.3*height} l0.1,0 l0,0.1 z" d="M0,6.7 l0.1,0 l0,0.1 z"/>
<path fill="none" data-relative-d="M{0.3*width},0 l0.1,0 l0,0.1 z" d="M64.8,0 l0.1,0 l0,0.1 z"/>
</g></g><rect stroke="none" stroke-width="1" fill="#FFFFFF" x="0" y="0" width="40" height="20" transform="translate(299.2,3.3)"/><path stroke="#000000" fill="none" d="M259.2,13.4 C276.2,30.3 282.2,-3.6 299.2 13.4"/><text font-family="OpenSansCondensedLight" font-size="14pt" fill="black" transform="translate(299.2,3.3)" text-anchor="middle"><tspan x="20" y="16.3">312</tspan></text><rect stroke-width="0" fill="none" width="251.6" height="21" transform="translate(3.8,3.8)"/><text font-family="OpenSansCondensedLight" font-size="14pt" fill="black" transform="translate(3.8,3.8)" text-anchor="middle"><tspan x="125.8" y="16.8">GENERATE WARNING</tspan></text><path stroke="#000000" fill="none" transform="translate(3.8,3.8)" d="M 0 0"/></g><g><path stroke="black" stroke-dasharray="none" d="M 353 377 353 407" fill="none"/><path fill="black" stroke="black" d="" transform="translate(353,377) scale(1,1) rotate(-270)"/><path fill="black" stroke="black" d="M 8 0 L 0 4 L 8 8 z" transform="translate(349,415) scale(1,1) rotate(-90)"/><g><g label-idx="0" cursor="move" transform="translate(353, 392)"><rect fill="white" rx="3" ry="3" x="0" y="0" width="0" height="0"/><text text-anchor="middle" font-size="14pt" font-family="OpenSansCondensedLight" y="0.8em" display="none" xml:space="preserve" transform="translate(0,0)"/></g></g></g><g transform="translate(466.8,324.7)"><g><g>
<path d="M45,0H0v15h45V0L45,0z" fill="none" stroke="none" stroke-dasharray="none"/>
<rect x="2" y="0.7" width="41.1" height="13.6" fill="none"/>
<circle fill="none" cx="22.5" cy="0" r="0.1"/>
<circle fill="none" cx="33.7" cy="0" r="0.1"/>
<circle fill="none" cx="45" cy="3.8" r="0.1"/>
<circle fill="none" cx="45" cy="7.5" r="0.1"/>
<circle fill="none" cx="45" cy="11.2" r="0.1"/>
<circle fill="none" cx="33.7" cy="15" r="0.1"/>
<circle fill="none" cx="22.5" cy="15" r="0.1"/>
<circle fill="none" cx="11.4" cy="15" r="0.1"/>
<circle fill="none" cx="0" cy="11.2" r="0.1"/>
<circle fill="none" cx="0" cy="7.5" r="0.1"/>
<circle fill="none" cx="0" cy="3.8" r="0.1"/>
<circle fill="none" cx="11.4" cy="0" r="0.1"/>
</g></g><rect stroke="none" stroke-width="0" fill="#FFFFFF" x="0" y="0" width="0" height="0" transform="translate(44.9,7.4)"/><path stroke="#000000" fill="none" d=""/><text font-family="OpenSansCondensedLight" font-size="14pt" fill="black" transform="translate(44.9,7.4)"/><rect stroke-width="0" fill="none" width="41.1" height="13.6" transform="translate(2,0.7)"/><text font-family="OpenSansCondensedLight" font-size="14pt" fill="black" transform="translate(2,0.7)" text-anchor="middle"><tspan x="20.5" y="13.1">YES</tspan></text><path stroke="#000000" fill="none" transform="translate(2,0.7)" d="M 0 0"/></g><g transform="translate(345,369.7)"><g><g>
<path d="M45,0H0v15h45V0L45,0z" fill="none" stroke="none" stroke-dasharray="none"/>
<rect x="2" y="0.7" width="41.1" height="13.6" fill="none"/>
<circle fill="none" cx="22.5" cy="0" r="0.1"/>
<circle fill="none" cx="33.7" cy="0" r="0.1"/>
<circle fill="none" cx="45" cy="3.8" r="0.1"/>
<circle fill="none" cx="45" cy="7.5" r="0.1"/>
<circle fill="none" cx="45" cy="11.2" r="0.1"/>
<circle fill="none" cx="33.7" cy="15" r="0.1"/>
<circle fill="none" cx="22.5" cy="15" r="0.1"/>
<circle fill="none" cx="11.4" cy="15" r="0.1"/>
<circle fill="none" cx="0" cy="11.2" r="0.1"/>
<circle fill="none" cx="0" cy="7.5" r="0.1"/>
<circle fill="none" cx="0" cy="3.8" r="0.1"/>
<circle fill="none" cx="11.4" cy="0" r="0.1"/>
</g></g><rect stroke="none" stroke-width="0" fill="#FFFFFF" x="0" y="0" width="0" height="0" transform="translate(44.9,7.4)"/><path stroke="#000000" fill="none" d=""/><text font-family="OpenSansCondensedLight" font-size="14pt" fill="black" transform="translate(44.9,7.4)"/><rect stroke-width="0" fill="none" width="41.1" height="13.6" transform="translate(2,0.7)"/><text font-family="OpenSansCondensedLight" font-size="14pt" fill="black" transform="translate(2,0.7)" text-anchor="middle"><tspan x="20.5" y="13.1">NO</tspan></text><path stroke="#000000" fill="none" transform="translate(2,0.7)" d="M 0 0"/></g><g transform="translate(480.9,496.1)"><g><g>
<path d="M45,0H0v15h45V0L45,0z" fill="none" stroke="none" stroke-dasharray="none"/>
<rect x="2" y="0.7" width="41.1" height="13.6" fill="none"/>
<circle fill="none" cx="22.5" cy="0" r="0.1"/>
<circle fill="none" cx="33.7" cy="0" r="0.1"/>
<circle fill="none" cx="45" cy="3.8" r="0.1"/>
<circle fill="none" cx="45" cy="7.5" r="0.1"/>
<circle fill="none" cx="45" cy="11.2" r="0.1"/>
<circle fill="none" cx="33.7" cy="15" r="0.1"/>
<circle fill="none" cx="22.5" cy="15" r="0.1"/>
<circle fill="none" cx="11.4" cy="15" r="0.1"/>
<circle fill="none" cx="0" cy="11.2" r="0.1"/>
<circle fill="none" cx="0" cy="7.5" r="0.1"/>
<circle fill="none" cx="0" cy="3.8" r="0.1"/>
<circle fill="none" cx="11.4" cy="0" r="0.1"/>
</g></g><rect stroke="none" stroke-width="0" fill="#FFFFFF" x="0" y="0" width="0" height="0" transform="translate(44.9,7.4)"/><path stroke="#000000" fill="none" d=""/><text font-family="OpenSansCondensedLight" font-size="14pt" fill="black" transform="translate(44.9,7.4)"/><rect stroke-width="0" fill="none" width="41.1" height="13.6" transform="translate(2,0.7)"/><text font-family="OpenSansCondensedLight" font-size="14pt" fill="black" transform="translate(2,0.7)" text-anchor="middle"><tspan x="20.5" y="13.1">YES</tspan></text><path stroke="#000000" fill="none" transform="translate(2,0.7)" d="M 0 0"/></g><g transform="translate(355,548.6)"><g><g>
<path d="M45,0H0v15h45V0L45,0z" fill="none" stroke="none" stroke-dasharray="none"/>
<rect x="2" y="0.7" width="41.1" height="13.6" fill="none"/>
<circle fill="none" cx="22.5" cy="0" r="0.1"/>
<circle fill="none" cx="33.7" cy="0" r="0.1"/>
<circle fill="none" cx="45" cy="3.8" r="0.1"/>
<circle fill="none" cx="45" cy="7.5" r="0.1"/>
<circle fill="none" cx="45" cy="11.2" r="0.1"/>
<circle fill="none" cx="33.7" cy="15" r="0.1"/>
<circle fill="none" cx="22.5" cy="15" r="0.1"/>
<circle fill="none" cx="11.4" cy="15" r="0.1"/>
<circle fill="none" cx="0" cy="11.2" r="0.1"/>
<circle fill="none" cx="0" cy="7.5" r="0.1"/>
<circle fill="none" cx="0" cy="3.8" r="0.1"/>
<circle fill="none" cx="11.4" cy="0" r="0.1"/>
</g></g><rect stroke="none" stroke-width="0" fill="#FFFFFF" x="0" y="0" width="0" height="0" transform="translate(44.9,7.4)"/><path stroke="#000000" fill="none" d=""/><text font-family="OpenSansCondensedLight" font-size="14pt" fill="black" transform="translate(44.9,7.4)"/><rect stroke-width="0" fill="none" width="41.1" height="13.6" transform="translate(2,0.7)"/><text font-family="OpenSansCondensedLight" font-size="14pt" fill="black" transform="translate(2,0.7)" text-anchor="middle"><tspan x="20.5" y="13.1">NO</tspan></text><path stroke="#000000" fill="none" transform="translate(2,0.7)" d="M 0 0"/></g><g transform="translate(225.9,578.6)"><g><g>
<path data-relative-d="M{width},0 H0 V{height} H{width} z" d="M255,0 H0 V30 H255 z" stroke="#000000" stroke-dasharray="none" fill="#FFFFFF"/>
<path data-relative-d="M{0.1cm},{0.1cm} V{height-0.1cm} H{width-0.1cm} V{0.1cm} z" d="M3.8,3.8 V28.1 H251.2 V3.8 z" fill="none"/>
<path fill="none" data-relative-d="M{0.5*width},0 l0.1,0 l0,0.1 z" d="M127.5,0 l0.1,0 l0,0.1 z"/>
<path fill="none" data-relative-d="M{0.8*width},0 l0.1,0 l0,0.1 z" d="M191.3,0 l0.1,0 l0,0.1 z"/>
<path fill="none" data-relative-d="M{width},{0.3*height} l0.1,0 l0,0.1 z" d="M255,7.5 l0.1,0 l0,0.1 z"/>
<path fill="none" data-relative-d="M{width},{0.5*height} l0.1,0 l0,0.1 z" d="M255,15 l0.1,0 l0,0.1 z"/>
<path fill="none" data-relative-d="M{width},{0.8*height} l0.1,0 l0,0.1 z" d="M255,22.5 l0.1,0 l0,0.1 z"/>
<path fill="none" data-relative-d="M{0.8*width},{height} l0.1,0 l0,0.1 z" d="M191.3,30 l0.1,0 l0,0.1 z"/>
<path fill="none" data-relative-d="M{0.5*width},{height} l0.1,0 l0,0.1 z" d="M127.5,30 l0.1,0 l0,0.1 z"/>
<path fill="none" data-relative-d="M{0.3*width},{height} l0.1,0 l0,0.1 z" d="M63.8,30 l0.1,0 l0,0.1 z"/>
<path fill="none" data-relative-d="M0,{0.8*height} l0.1,0 l0,0.1 z" d="M0,22.5 l0.1,0 l0,0.1 z"/>
<path fill="none" data-relative-d="M0,{0.5*height} l0.1,0 l0,0.1 z" d="M0,15 l0.1,0 l0,0.1 z"/>
<path fill="none" data-relative-d="M0,{0.3*height} l0.1,0 l0,0.1 z" d="M0,7.5 l0.1,0 l0,0.1 z"/>
<path fill="none" data-relative-d="M{0.3*width},0 l0.1,0 l0,0.1 z" d="M63.8,0 l0.1,0 l0,0.1 z"/>
</g></g><rect stroke="none" stroke-width="1" fill="#FFFFFF" x="0" y="0" width="40" height="20" transform="translate(295,5)"/><path stroke="#000000" fill="none" d="M255.1,15.1 C272,32 278,-1.9 295 15"/><text font-family="OpenSansCondensedLight" font-size="14pt" fill="black" transform="translate(295,5)" text-anchor="middle"><tspan x="20" y="16.3">316</tspan></text><rect stroke-width="0" fill="none" width="247.4" height="24.3" transform="translate(3.8,3.8)"/><text font-family="OpenSansCondensedLight" font-size="14pt" fill="black" transform="translate(3.8,3.8)" text-anchor="middle"><tspan x="123.7" y="18.5">GENERATE WARNING</tspan></text><path stroke="#000000" fill="none" transform="translate(3.8,3.8)" d="M 0 0"/></g><g><path stroke="black" stroke-dasharray="none" d="M 353 556 353 571" fill="none"/><path fill="black" stroke="black" d="" transform="translate(353,556) scale(1,1) rotate(-270)"/><path fill="black" stroke="black" d="M 8 0 L 0 4 L 8 8 z" transform="translate(349,579) scale(1,1) rotate(-90)"/><g><g label-idx="0" cursor="move" transform="translate(353, 563.5)"><rect fill="white" rx="3" ry="3" x="0" y="0" width="0" height="0"/><text text-anchor="middle" font-size="14pt" font-family="OpenSansCondensedLight" y="0.8em" display="none" xml:space="preserve" transform="translate(0,0)"/></g></g></g><g transform="translate(225.9,637)"><g><g>
<path data-relative-d="M{width},0 H0 V{height} H{width} z" d="M255,0 H0 V26.7 H255 z" stroke="#000000" stroke-dasharray="none" fill="#FFFFFF"/>
<path data-relative-d="M{0.1cm},{0.1cm} V{height-0.1cm} H{width-0.1cm} V{0.1cm} z" d="M3.8,3.8 V24.8 H251.2 V3.8 z" fill="none"/>
<path fill="none" data-relative-d="M{0.5*width},0 l0.1,0 l0,0.1 z" d="M127.5,0 l0.1,0 l0,0.1 z"/>
<path fill="none" data-relative-d="M{0.8*width},0 l0.1,0 l0,0.1 z" d="M191.3,0 l0.1,0 l0,0.1 z"/>
<path fill="none" data-relative-d="M{width},{0.3*height} l0.1,0 l0,0.1 z" d="M255,6.7 l0.1,0 l0,0.1 z"/>
<path fill="none" data-relative-d="M{width},{0.5*height} l0.1,0 l0,0.1 z" d="M255,13.4 l0.1,0 l0,0.1 z"/>
<path fill="none" data-relative-d="M{width},{0.8*height} l0.1,0 l0,0.1 z" d="M255,20.1 l0.1,0 l0,0.1 z"/>
<path fill="none" data-relative-d="M{0.8*width},{height} l0.1,0 l0,0.1 z" d="M191.3,26.7 l0.1,0 l0,0.1 z"/>
<path fill="none" data-relative-d="M{0.5*width},{height} l0.1,0 l0,0.1 z" d="M127.5,26.7 l0.1,0 l0,0.1 z"/>
<path fill="none" data-relative-d="M{0.3*width},{height} l0.1,0 l0,0.1 z" d="M63.8,26.7 l0.1,0 l0,0.1 z"/>
<path fill="none" data-relative-d="M0,{0.8*height} l0.1,0 l0,0.1 z" d="M0,20.1 l0.1,0 l0,0.1 z"/>
<path fill="none" data-relative-d="M0,{0.5*height} l0.1,0 l0,0.1 z" d="M0,13.4 l0.1,0 l0,0.1 z"/>
<path fill="none" data-relative-d="M0,{0.3*height} l0.1,0 l0,0.1 z" d="M0,6.7 l0.1,0 l0,0.1 z"/>
<path fill="none" data-relative-d="M{0.3*width},0 l0.1,0 l0,0.1 z" d="M63.8,0 l0.1,0 l0,0.1 z"/>
</g></g><rect stroke="none" stroke-width="1" fill="#FFFFFF" x="0" y="0" width="40" height="20" transform="translate(295,3.4)"/><path stroke="#000000" fill="none" d="M255.1,13.4 C272,30.4 278,-3.5 295 13.4"/><text font-family="OpenSansCondensedLight" font-size="14pt" fill="black" transform="translate(295,3.4)" text-anchor="middle"><tspan x="20" y="16.3">318</tspan></text><rect stroke-width="0" fill="none" width="247.4" height="21.1" transform="translate(3.8,3.8)"/><text font-family="OpenSansCondensedLight" font-size="14pt" fill="black" transform="translate(3.8,3.8)" text-anchor="middle"><tspan x="123.7" y="6.3">GENERATE SECOND TEST</tspan><tspan x="123.7" y="27.3">CASE FILE</tspan></text><path stroke="#000000" fill="none" transform="translate(3.8,3.8)" d="M 0 0"/></g><g><path stroke="black" stroke-dasharray="none" d="M 481 510 600 510 600 615 360 615 355 629" fill="none"/><path fill="black" stroke="black" d="" transform="translate(481,510) scale(1,1) rotate(0)"/><path fill="black" stroke="black" d="M 8 0 L 0 4 L 8 8 z" transform="translate(349.2,635.8) scale(1,1) rotate(-72.3)"/><g><g label-idx="0" cursor="move" transform="translate(584.6, 615)"><rect fill="white" rx="3" ry="3" x="0" y="0" width="0" height="0"/><text text-anchor="middle" font-size="14pt" font-family="OpenSansCondensedLight" y="0.8em" display="none" xml:space="preserve" transform="translate(0,0)"/></g></g></g><g transform="translate(225.9,686.7)"><g><g>
<path data-relative-d="M{width},0 H0 V{height} H{width} z" d="M255,0 H0 V26.7 H255 z" stroke="#000000" stroke-dasharray="none" fill="#FFFFFF"/>
<path data-relative-d="M{0.1cm},{0.1cm} V{height-0.1cm} H{width-0.1cm} V{0.1cm} z" d="M3.8,3.8 V24.8 H251.2 V3.8 z" fill="none"/>
<path fill="none" data-relative-d="M{0.5*width},0 l0.1,0 l0,0.1 z" d="M127.5,0 l0.1,0 l0,0.1 z"/>
<path fill="none" data-relative-d="M{0.8*width},0 l0.1,0 l0,0.1 z" d="M191.3,0 l0.1,0 l0,0.1 z"/>
<path fill="none" data-relative-d="M{width},{0.3*height} l0.1,0 l0,0.1 z" d="M255,6.7 l0.1,0 l0,0.1 z"/>
<path fill="none" data-relative-d="M{width},{0.5*height} l0.1,0 l0,0.1 z" d="M255,13.4 l0.1,0 l0,0.1 z"/>
<path fill="none" data-relative-d="M{width},{0.8*height} l0.1,0 l0,0.1 z" d="M255,20.1 l0.1,0 l0,0.1 z"/>
<path fill="none" data-relative-d="M{0.8*width},{height} l0.1,0 l0,0.1 z" d="M191.3,26.7 l0.1,0 l0,0.1 z"/>
<path fill="none" data-relative-d="M{0.5*width},{height} l0.1,0 l0,0.1 z" d="M127.5,26.7 l0.1,0 l0,0.1 z"/>
<path fill="none" data-relative-d="M{0.3*width},{height} l0.1,0 l0,0.1 z" d="M63.8,26.7 l0.1,0 l0,0.1 z"/>
<path fill="none" data-relative-d="M0,{0.8*height} l0.1,0 l0,0.1 z" d="M0,20.1 l0.1,0 l0,0.1 z"/>
<path fill="none" data-relative-d="M0,{0.5*height} l0.1,0 l0,0.1 z" d="M0,13.4 l0.1,0 l0,0.1 z"/>
<path fill="none" data-relative-d="M0,{0.3*height} l0.1,0 l0,0.1 z" d="M0,6.7 l0.1,0 l0,0.1 z"/>
<path fill="none" data-relative-d="M{0.3*width},0 l0.1,0 l0,0.1 z" d="M63.8,0 l0.1,0 l0,0.1 z"/>
</g></g><rect stroke="none" stroke-width="1" fill="#FFFFFF" x="0" y="0" width="40" height="20" transform="translate(295,3.4)"/><path stroke="#000000" fill="none" d="M255.1,13.4 C272,30.4 278,-3.5 295 13.4"/><text font-family="OpenSansCondensedLight" font-size="14pt" fill="black" transform="translate(295,3.4)" text-anchor="middle"><tspan x="20" y="16.3">320</tspan></text><rect stroke-width="0" fill="none" width="247.4" height="21.1" transform="translate(3.8,3.8)"/><text font-family="OpenSansCondensedLight" font-size="14pt" fill="black" transform="translate(3.8,3.8)" text-anchor="middle"><tspan x="123.7" y="16.8">GENERATE TEST IDS</tspan></text><path stroke="#000000" fill="none" transform="translate(3.8,3.8)" d="M 0 0"/></g><g><path stroke="black" stroke-dasharray="none" d="M 353 664 353 679" fill="none"/><path fill="black" stroke="black" d="" transform="translate(353,664) scale(1,1) rotate(-270)"/><path fill="black" stroke="black" d="M 8 0 L 0 4 L 8 8 z" transform="translate(349,687) scale(1,1) rotate(-90)"/><g><g label-idx="0" cursor="move" transform="translate(353, 671.5)"><rect fill="white" rx="3" ry="3" x="0" y="0" width="0" height="0"/><text text-anchor="middle" font-size="14pt" font-family="OpenSansCondensedLight" y="0.8em" display="none" xml:space="preserve" transform="translate(0,0)"/></g></g></g><g transform="translate(225.9,736.5)"><g><g>
<path data-relative-d="M{width},0 H0 V{height} H{width} z" d="M255,0 H0 V47.6 H255 z" stroke="#000000" stroke-dasharray="none" fill="#FFFFFF"/>
<path data-relative-d="M{0.1cm},{0.1cm} V{height-0.1cm} H{width-0.1cm} V{0.1cm} z" d="M3.8,3.8 V45.7 H251.2 V3.8 z" fill="none"/>
<path fill="none" data-relative-d="M{0.5*width},0 l0.1,0 l0,0.1 z" d="M127.5,0 l0.1,0 l0,0.1 z"/>
<path fill="none" data-relative-d="M{0.8*width},0 l0.1,0 l0,0.1 z" d="M191.3,0 l0.1,0 l0,0.1 z"/>
<path fill="none" data-relative-d="M{width},{0.3*height} l0.1,0 l0,0.1 z" d="M255,11.9 l0.1,0 l0,0.1 z"/>
<path fill="none" data-relative-d="M{width},{0.5*height} l0.1,0 l0,0.1 z" d="M255,23.8 l0.1,0 l0,0.1 z"/>
<path fill="none" data-relative-d="M{width},{0.8*height} l0.1,0 l0,0.1 z" d="M255,35.7 l0.1,0 l0,0.1 z"/>
<path fill="none" data-relative-d="M{0.8*width},{height} l0.1,0 l0,0.1 z" d="M191.3,47.6 l0.1,0 l0,0.1 z"/>
<path fill="none" data-relative-d="M{0.5*width},{height} l0.1,0 l0,0.1 z" d="M127.5,47.6 l0.1,0 l0,0.1 z"/>
<path fill="none" data-relative-d="M{0.3*width},{height} l0.1,0 l0,0.1 z" d="M63.8,47.6 l0.1,0 l0,0.1 z"/>
<path fill="none" data-relative-d="M0,{0.8*height} l0.1,0 l0,0.1 z" d="M0,35.7 l0.1,0 l0,0.1 z"/>
<path fill="none" data-relative-d="M0,{0.5*height} l0.1,0 l0,0.1 z" d="M0,23.8 l0.1,0 l0,0.1 z"/>
<path fill="none" data-relative-d="M0,{0.3*height} l0.1,0 l0,0.1 z" d="M0,11.9 l0.1,0 l0,0.1 z"/>
<path fill="none" data-relative-d="M{0.3*width},0 l0.1,0 l0,0.1 z" d="M63.8,0 l0.1,0 l0,0.1 z"/>
</g></g><rect stroke="none" stroke-width="1" fill="#FFFFFF" x="0" y="0" width="40" height="20" transform="translate(295,13.8)"/><path stroke="#000000" fill="none" d="M255.1,23.8 C272,40.8 278,6.9 295 23.8"/><text font-family="OpenSansCondensedLight" font-size="14pt" fill="black" transform="translate(295,13.8)" text-anchor="middle"><tspan x="20" y="16.3">322</tspan></text><rect stroke-width="0" fill="none" width="247.4" height="41.9" transform="translate(3.8,3.8)"/><text font-family="OpenSansCondensedLight" font-size="14pt" fill="black" transform="translate(3.8,3.8)" text-anchor="middle"><tspan x="123.7" y="16.8">TRANSFORM FIRST TEST</tspan><tspan x="123.7" y="37.8">CASE DETAILS FILE</tspan></text><path stroke="#000000" fill="none" transform="translate(3.8,3.8)" d="M 0 0"/></g><g><path stroke="black" stroke-dasharray="none" d="M 353 714 353 729" fill="none"/><path fill="black" stroke="black" d="" transform="translate(353,714) scale(1,1) rotate(-270)"/><path fill="black" stroke="black" d="M 8 0 L 0 4 L 8 8 z" transform="translate(349,737) scale(1,1) rotate(-90)"/><g><g label-idx="0" cursor="move" transform="translate(353, 721.5)"><rect fill="white" rx="3" ry="3" x="0" y="0" width="0" height="0"/><text text-anchor="middle" font-size="14pt" font-family="OpenSansCondensedLight" y="0.8em" display="none" xml:space="preserve" transform="translate(0,0)"/></g></g></g><g transform="translate(225.9,807.1)"><g><g>
<path data-relative-d="M{width - min(1cm,width*0.2)},0  H{min(1cm,width*0.2)}  C{min(1cm,width*0.2)/3},0  0,{height/6}  0,{height/2}  C0,{height - height/6}  {min(1cm,width*0.2)/3},{height}  {min(1cm,width*0.2)},{height}  H{width - min(1cm,width*0.2)}  C{width - (min(1cm,width*0.2)/3)},{height}  {width},{height - height/6}  {width},{height/2}  C{width},{height/6}  {width - (min(1cm,width*0.2)/3)},0  {width - min(1cm,width*0.2)},0  z" d="M217.2,0  H37.8  C12.6,0  0,4.5  0,13.4  C0,22.3  12.6,26.7  37.8,26.7  H217.2  C242.4,26.7  255,22.3  255,13.4  C255,4.5  242.4,0  217.2,0  z" stroke="#000000" stroke-dasharray="none" fill="#FFFFFF"/>
<path data-relative-d="M{5mm},{1mm} V{height-0.5mm} H{width-5mm} V{1mm} z" d="M18.9,3.8 V24.8 H236.1 V3.8 z" fill="none"/>

<path fill="none" data-relative-d="M{0.5*width},0 l0.1,0 l0,0.1 z" d="M127.5,0 l0.1,0 l0,0.1 z"/>
<path fill="none" data-relative-d="M{0.8*width},0 l0.1,0 l0,0.1 z" d="M191.3,0 l0.1,0 l0,0.1 z"/>
<path fill="none" data-relative-d="M{width},{0.5*height} l0.1,0 l0,0.1 z" d="M255,13.4 l0.1,0 l0,0.1 z"/>
<path fill="none" data-relative-d="M{width},{0.5*height} l0.1,0 l0,0.1 z" d="M255,13.4 l0.1,0 l0,0.1 z"/>
<path fill="none" data-relative-d="M{width},{0.5*height} l0.1,0 l0,0.1 z" d="M255,13.4 l0.1,0 l0,0.1 z"/>
<path fill="none" data-relative-d="M{0.8*width},{height} l0.1,0 l0,0.1 z" d="M191.3,26.7 l0.1,0 l0,0.1 z"/>
<path fill="none" data-relative-d="M{0.5*width},{height} l0.1,0 l0,0.1 z" d="M127.5,26.7 l0.1,0 l0,0.1 z"/>
<path fill="none" data-relative-d="M{0.3*width},{height} l0.1,0 l0,0.1 z" d="M63.8,26.7 l0.1,0 l0,0.1 z"/>
<path fill="none" data-relative-d="M0,{0.5*height} l0.1,0 l0,0.1 z" d="M0,13.4 l0.1,0 l0,0.1 z"/>
<path fill="none" data-relative-d="M0,{0.5*height} l0.1,0 l0,0.1 z" d="M0,13.4 l0.1,0 l0,0.1 z"/>
<path fill="none" data-relative-d="M0,{0.5*height} l0.1,0 l0,0.1 z" d="M0,13.4 l0.1,0 l0,0.1 z"/>
<path fill="none" data-relative-d="M{0.3*width},0 l0.1,0 l0,0.1 z" d="M63.8,0 l0.1,0 l0,0.1 z"/>
</g></g><rect stroke="none" stroke-width="0" fill="#FFFFFF" x="0" y="0" width="0" height="0" transform="translate(255,13.4)"/><path stroke="#000000" fill="none" d=""/><text font-family="OpenSansCondensedLight" font-size="14pt" fill="black" transform="translate(255,13.4)"/><rect stroke-width="0" fill="none" width="217.2" height="21" transform="translate(18.9,3.8)"/><text font-family="OpenSansCondensedLight" font-size="14pt" fill="black" transform="translate(18.9,3.8)" text-anchor="middle"><tspan x="108.6" y="16.8">END</tspan></text><path stroke="#000000" fill="none" transform="translate(18.9,3.8)" d="M 0 0"/></g><g><path stroke="black" stroke-dasharray="none" d="M 353 784 353 799" fill="none"/><path fill="black" stroke="black" d="" transform="translate(353,784) scale(1,1) rotate(-270)"/><path fill="black" stroke="black" d="M 8 0 L 0 4 L 8 8 z" transform="translate(349,807) scale(1,1) rotate(-90)"/><g><g label-idx="0" cursor="move" transform="translate(353, 791.5)"><rect fill="white" rx="3" ry="3" x="0" y="0" width="0" height="0"/><text text-anchor="middle" font-size="14pt" font-family="OpenSansCondensedLight" y="0.8em" display="none" xml:space="preserve" transform="translate(0,0)"/></g></g></g><g><path stroke="black" stroke-dasharray="none" d="M 224 428 165 420 165 345 216 345" fill="none"/><path fill="black" stroke="black" d="" transform="translate(224,428) scale(1,1) rotate(-172.3)"/><path fill="black" stroke="black" d="M 8 0 L 0 4 L 8 8 z" transform="translate(224,349) scale(1,1) rotate(-180)"/><g><g label-idx="0" cursor="move" transform="translate(165, 386.8)"><rect fill="white" rx="3" ry="3" x="0" y="0" width="0" height="0"/><text text-anchor="middle" font-size="14pt" font-family="OpenSansCondensedLight" y="0.8em" display="none" xml:space="preserve" transform="translate(0,0)"/></g></g></g><g><path stroke="black" stroke-dasharray="none" d="M 226 594 165 585 165 510 218 510" fill="none"/><path fill="black" stroke="black" d="" transform="translate(226,594) scale(1,1) rotate(-171.6)"/><path fill="black" stroke="black" d="M 8 0 L 0 4 L 8 8 z" transform="translate(226,514) scale(1,1) rotate(-180)"/><g><g label-idx="0" cursor="move" transform="translate(165, 551.8)"><rect fill="white" rx="3" ry="3" x="0" y="0" width="0" height="0"/><text text-anchor="middle" font-size="14pt" font-family="OpenSansCondensedLight" y="0.8em" display="none" xml:space="preserve" transform="translate(0,0)"/></g></g></g></g><defs/></svg>